<svg width="1724" height="1542" viewBox="0 0 1724 1542" fill="none" xmlns="http://www.w3.org/2000/svg">
<path d="M36.1064 1329.47L864.292 321.242C870.123 314.143 878.887 310.107 888.072 310.29L1435.45 321.221C1460.89 321.728 1474.19 351.678 1457.5 370.886L734.431 1203.45C727.648 1211.26 725.367 1222.01 728.395 1231.9L811.154 1502.22C817.058 1521.5 802.635 1541 782.468 1541H135.485C132.529 1541 129.506 1540.55 126.692 1539.64C-6.89376 1496.64 7.37636 1387.43 32.5908 1334.91C33.5335 1332.94 34.7238 1331.15 36.1064 1329.47Z" fill="url(#paint0_linear_3077_137)"/>
<path d="M1206.61 1541.15H771.608H770.934C763.09 1541.15 755.049 1540.01 747.579 1537.61C524.67 1466.13 601.113 1312.3 683.441 1226.17C697.216 1211.75 716.603 1204.54 736.539 1204.37C845.415 1203.43 1038.14 1202.48 1133.11 1204.66C1237.91 1207.06 1347.77 1126.66 1389.61 1086.16L1580.11 927.155C1688.34 857.279 1720.11 924.29 1723.33 972.612C1723.66 977.633 1723.15 982.751 1722.23 987.697C1647.06 1388.65 1347.73 1523.76 1206.61 1541.15Z" fill="url(#paint1_linear_3077_137)"/>
<path d="M1612.61 0H316.173C262.885 4.31012 92.3374 212.079 8.78473 321.768L8.7571 321.805C5.31895 326.318 1.82022 330.911 0.591111 336.45C-2.50654 350.409 7.03188 362.254 18.4301 370.632C30.4631 379.477 45.8367 381.5 60.7706 381.5H956.183C969.745 381.5 983.456 383.371 995.555 389.498C1044.29 414.181 1051.92 454.326 1047.74 482.156C1045.97 493.948 1039.38 504.229 1031.92 513.531L511.09 1162.91C499.952 1176.8 491.644 1192.99 488.952 1210.58C473.38 1312.37 521.146 1354.65 569.118 1368.37C599.924 1377.19 630.356 1359.77 651.12 1335.37L1672.96 134.4C1684.94 120.324 1694.7 103.701 1695.13 85.2245C1696.34 33.6112 1658.89 9.69752 1631.51 2.06386C1625.37 0.354247 1618.97 0 1612.61 0Z" fill="url(#paint2_linear_3077_137)"/>
<defs>
<linearGradient id="paint0_linear_3077_137" x1="385.913" y1="348.594" x2="987.622" y2="1872.91" gradientUnits="userSpaceOnUse">
<stop offset="0.286647" stop-color="#D72384"/>
<stop offset="0.714872" stop-color="#FF7E54"/>
</linearGradient>
<linearGradient id="paint1_linear_3077_137" x1="1723.61" y1="946.6" x2="601" y2="1491.55" gradientUnits="userSpaceOnUse">
<stop offset="0.0858418" stop-color="#FFAE4E"/>
<stop offset="1" stop-color="#D55240"/>
</linearGradient>
<linearGradient id="paint2_linear_3077_137" x1="370.749" y1="3.52481e-05" x2="1210.5" y2="1304" gradientUnits="userSpaceOnUse">
<stop stop-color="#D62EDD"/>
<stop offset="0.540014" stop-color="#F93191"/>
<stop offset="0.781598" stop-color="#FC804D"/>
</linearGradient>
</defs>
</svg>
